<svg id="Слой_1" data-name="Слой 1" xmlns="http://www.w3.org/2000/svg" xmlns:xlink="http://www.w3.org/1999/xlink" viewBox="0 0 476.8 476.8"><defs><style>.cls-1{fill:url(#Безымянный_градиент_777);}.cls-2{fill:#9d9d9c;}</style><linearGradient id="Безымянный_градиент_777" x1="199.03" y1="435.81" x2="282.91" y2="7.75" gradientUnits="userSpaceOnUse"><stop offset="0" stop-color="#a4aef8"/><stop offset="0.09" stop-color="#95bad3" stop-opacity="0.96"/><stop offset="0.28" stop-color="#70d977" stop-opacity="0.86"/><stop offset="0.39" stop-color="#5bea42" stop-opacity="0.8"/><stop offset="0.44" stop-color="#5aeb40" stop-opacity="0.76"/><stop offset="0.52" stop-color="#57ed39" stop-opacity="0.64"/><stop offset="0.63" stop-color="#53f02f" stop-opacity="0.46"/><stop offset="0.7" stop-color="#50f327" stop-opacity="0.32"/><stop offset="0.98" stop-color="#42fe03" stop-opacity="0.05"/><stop offset="1" stop-color="#41ff00" stop-opacity="0.03"/></linearGradient></defs><title>Монтажная область 1</title><path class="cls-1" d="M409.68,463.87c-42.22,0-93.88-8.05-153.55-23.93C211.46,428.05,167.75,422,126.2,422c-70.65,0-111,17.67-111.38,17.85l-1.89.84V12.93H463.87V456.85l-.81.35C462.42,457.47,447,463.87,409.68,463.87Z"/><path class="cls-2" d="M462.53,14.27V456s-15.42,6.57-52.85,6.57c-32.75,0-82.36-5-153.21-23.89-50.61-13.47-94.38-18-130.27-18-71.76,0-111.93,18-111.93,18V14.27H462.53m2.69-2.69H11.58v431.2l3.79-1.68c.39-.18,40.58-17.73,110.83-17.73,41.43,0,85,6,129.58,17.87,59.78,15.91,111.56,24,153.9,24,37.55,0,53.26-6.51,53.91-6.78l1.63-.7V11.58Z"/></svg>