<svg width="37" height="36" viewBox="0 0 37 36" fill="none" xmlns="http://www.w3.org/2000/svg">
<path fill-rule="evenodd" clip-rule="evenodd" d="M36.0562 17.9859C36.0562 27.7724 28.1226 35.7059 18.3361 35.7059C8.54962 35.7059 0.616089 27.7724 0.616089 17.9859C0.616089 8.1994 8.54962 0.265869 18.3361 0.265869C28.1226 0.265869 36.0562 8.1994 36.0562 17.9859ZM11.4941 12.806L18.3858 17.6302L25.2775 12.8061C25.1508 12.5979 24.9215 12.4573 24.6629 12.4573H12.1086C11.85 12.4573 11.6208 12.5979 11.4941 12.806ZM27.0827 13.1594C27.0737 11.8341 25.9902 10.7561 24.6629 10.7561H12.1086C10.7801 10.7561 9.69579 11.8361 9.6888 13.1631C9.6887 13.1703 9.68868 13.1775 9.68876 13.1847V22.5917C9.68876 23.9246 10.7758 25.0115 12.1086 25.0115H24.6629C25.9958 25.0115 27.0828 23.9246 27.0828 22.5917V13.1877C27.0829 13.1783 27.0829 13.1688 27.0827 13.1594ZM25.3816 14.8096V22.5917C25.3816 22.9851 25.0563 23.3104 24.6629 23.3104H12.1086C11.7153 23.3104 11.3899 22.9851 11.3899 22.5917V14.8096L17.898 19.3653C18.1909 19.5703 18.5807 19.5703 18.8735 19.3653L25.3816 14.8096Z" fill="#A4AEF8"/>
</svg>
