<svg width="36" height="36" viewBox="0 0 36 36" fill="none" xmlns="http://www.w3.org/2000/svg">
<path fill-rule="evenodd" clip-rule="evenodd" d="M17.72 35.7059C27.5065 35.7059 35.4401 27.7724 35.4401 17.9859C35.4401 8.1994 27.5065 0.265869 17.72 0.265869C7.93353 0.265869 0 8.1994 0 17.9859C0 27.7724 7.93353 35.7059 17.72 35.7059ZM20.0614 8.36647L22.6875 8.37068C22.9153 8.37111 23.0998 8.55587 23.0998 8.78362V11.8752C23.0998 12.1031 22.9151 12.2881 22.6871 12.2881L20.918 12.2888C19.6984 12.2888 19.4752 12.7641 19.4752 13.7003V15.6483H22.5637C22.6732 15.6483 22.7785 15.6919 22.8559 15.7694C22.9332 15.847 22.9768 15.9519 22.9768 16.0615L22.9755 19.3909C22.9755 19.619 22.7908 19.8038 22.5626 19.8038H19.4752V28.205C19.4752 28.433 19.2905 28.6179 19.0623 28.6179H15.6172C15.3891 28.6179 15.2043 28.4332 15.2043 28.205V19.8038H12.5638C12.3358 19.8038 12.1509 19.619 12.1509 19.3909V16.0615C12.1509 15.8333 12.3356 15.6483 12.5638 15.6483H15.2043V13.3504C15.2043 10.3227 17.111 8.36647 20.0614 8.36647Z" fill="#A4AEF8"/>
</svg>
