<svg width="32" height="33" viewBox="0 0 32 33" fill="none" xmlns="http://www.w3.org/2000/svg">
<path d="M17.0049 32.0554C12.793 32.0554 8.56671 32.0554 4.35475 32.0554C2.81274 32.0554 1.58484 31.4129 0.713892 30.1422C0.214168 29.4283 0 28.6145 0 27.7435C0 19.2197 0 10.6958 0 2.1719C0 1.1439 0.985163 0.372905 1.99889 0.80124C2.54145 1.02969 2.81274 1.47226 2.85557 2.05765C2.85557 2.11477 2.85557 2.18616 2.85557 2.24327C2.85557 10.7386 2.85557 19.2339 2.85557 27.7292C2.85557 28.486 3.32673 29.0713 4.0549 29.1856C4.16913 29.1998 4.28336 29.1999 4.38331 29.1999C12.8929 29.1999 21.4025 29.1999 29.9121 29.1999C30.6403 29.1999 31.2257 29.6425 31.3684 30.3278C31.554 31.1845 30.9258 31.9983 30.0549 32.0411C29.9692 32.0411 29.8835 32.0411 29.7979 32.0411C25.5431 32.0554 21.274 32.0554 17.0049 32.0554Z" fill="#A4AEF8"/>
<path d="M5.29727 18.2058C5.29727 16.0213 5.24015 13.8225 5.31154 11.638C5.41148 8.85384 6.7536 6.76928 9.28078 5.61277C11.9936 4.3706 14.5636 4.79893 16.8052 6.76927C18.2758 8.06856 19.004 9.75334 19.0326 11.7237C19.0468 12.9944 19.0326 14.2651 19.0326 15.5358C19.0326 16.7209 19.2467 17.8631 19.7607 18.934C20.9172 21.3184 22.7876 22.8033 25.4005 23.3458C25.9145 23.4458 26.457 23.4743 26.971 23.4886C27.4993 23.5172 28.0133 23.4886 28.5416 23.4886C29.3412 23.4886 29.9551 24.1026 29.9837 24.8879C29.9979 25.6589 29.3983 26.3156 28.613 26.3299C27.5992 26.3442 26.5855 26.387 25.5718 26.2585C24.0012 26.0586 22.5306 25.5589 21.2028 24.7022C18.5043 22.9603 16.8623 20.5046 16.3197 17.3492C16.2198 16.8066 16.1913 16.2355 16.177 15.6929C16.1627 14.3508 16.1913 13.0087 16.1627 11.6666C16.1342 9.7105 14.5779 8.03999 12.6218 7.82582C10.423 7.5831 8.48121 9.08227 8.18138 11.2668C8.15282 11.4524 8.13855 11.638 8.13855 11.8094C8.13855 16.1498 8.13855 20.5046 8.13855 24.845C8.13855 25.5161 7.7816 26.0443 7.18193 26.2442C6.23959 26.5583 5.29725 25.8873 5.28298 24.9021C5.29725 22.689 5.29727 20.4475 5.29727 18.2058Z" fill="#A4AEF8"/>
</svg>
