<svg width="32" height="31" viewBox="0 0 32 31" fill="none" xmlns="http://www.w3.org/2000/svg">
<path d="M16.0513 30.4734C11.9461 30.4028 8.67052 29.1598 5.92419 26.6174C3.53546 24.4139 2.10508 21.6878 1.59015 18.4956C1.27546 16.5323 1.38989 14.569 1.91913 12.648C1.94773 12.535 1.93343 12.4785 1.8476 12.4079C0.503047 11.292 -0.112014 9.86543 0.01672 8.14221C0.174062 6.1365 1.60446 4.42739 3.56408 3.84828C3.67851 3.82003 3.7357 3.76352 3.79292 3.66465C4.55102 2.42167 5.5809 1.48944 6.99698 1.0657C8.88508 0.500709 10.5872 0.910325 12.0748 2.16743C12.175 2.25218 12.2751 2.33693 12.3466 2.4358C12.4467 2.56292 12.5469 2.57707 12.7042 2.54882C16.037 1.87084 19.241 2.28045 22.2734 3.82004C25.0341 5.23252 27.1081 7.35123 28.4956 10.0914C29.3109 11.7017 29.7829 13.4107 29.9117 15.2046C29.9546 15.7696 29.9403 16.3345 29.9546 16.8995C29.9546 16.9843 29.9832 17.0832 30.0404 17.1538C31.8427 19.2584 31.857 22.2387 30.069 24.3433C29.0391 25.558 27.6946 26.1795 26.0925 26.2078C25.9495 26.2078 25.8494 26.2501 25.7492 26.349C23.6037 28.4253 21.0576 29.7389 18.0967 30.2333C17.3386 30.3887 16.5233 30.4169 16.0513 30.4734ZM15.6651 5.07712C15.7366 5.14775 15.7795 5.19011 15.8224 5.24661C16.9524 6.50372 17.3815 7.97273 17.0382 9.6112C16.4089 12.5491 13.3908 14.2159 10.5014 13.2554C10.4299 13.2271 10.3298 13.2271 10.2582 13.2554C9.14254 13.6226 8.04115 13.6226 6.92545 13.2695C6.83963 13.2413 6.71091 13.2413 6.62509 13.2695C6.05293 13.4531 5.45217 13.552 4.85141 13.5237C4.69407 13.5237 4.63685 13.552 4.60825 13.6932C4.25065 15.1905 4.19344 16.7018 4.4509 18.2273C4.85141 20.5296 5.85268 22.5212 7.49762 24.1879C9.55736 26.2784 12.0748 27.4225 15.0214 27.6203C17.0239 27.7474 18.9406 27.366 20.7429 26.5044C20.9432 26.4055 21.1291 26.3066 21.3294 26.1936C20.9861 26.0948 20.6714 26.0241 20.3567 25.9253C20.228 25.8829 20.1136 25.8829 19.9848 25.9253C17.9251 26.5891 16.0799 26.2078 14.5351 24.7247C13.2334 23.4817 12.7185 21.928 12.9044 20.1483C13.1333 17.9872 14.6638 16.1651 16.7522 15.5436C16.8237 15.5153 16.9095 15.4447 16.9524 15.3741C17.3958 14.5831 17.9537 13.891 18.6832 13.3401C20.0706 12.2666 21.6298 11.8712 23.3462 12.2525C24.8624 12.5915 25.9924 13.4673 26.8936 14.682C26.9365 14.7385 26.9794 14.795 27.0366 14.8797C26.4072 9.30043 21.2865 4.95 15.6651 5.07712ZM25.9638 23.3969C26.5073 23.3969 26.9508 23.2839 27.3227 23.0579C28.281 22.4788 28.7816 21.3347 28.5385 20.2471C28.3096 19.1878 27.6803 18.4815 26.6075 18.2132C26.2642 18.1284 25.9066 18.1284 25.549 18.1001C25.4632 18.086 25.406 18.0578 25.3774 17.973C25.3201 17.8035 25.2343 17.6199 25.1771 17.4504C24.9339 16.7866 24.5763 16.1933 24.0614 15.7131C23.2461 14.9503 22.1161 14.7243 21.1434 15.1481C20.4711 15.4447 19.9705 15.9108 19.6129 16.5323C19.3555 16.9702 19.1838 17.4645 18.9836 17.9307C18.9406 18.0437 18.8834 18.1002 18.7547 18.1143C18.3399 18.1567 17.8965 18.1708 17.496 18.2979C15.9511 18.7923 15.2646 20.6991 16.0799 22.1257C16.7665 23.3122 18.1682 23.75 19.3555 23.1286C19.5986 23.0014 19.8275 22.8461 20.0706 22.719C20.1279 22.6907 20.2137 22.6907 20.2566 22.719C20.4855 22.832 20.7143 22.9732 20.9432 23.1003C21.6441 23.4676 22.3879 23.524 23.1174 23.2133C23.4463 23.0721 23.7467 22.8885 24.0614 22.719C24.1472 22.6766 24.1901 22.6766 24.276 22.719C24.4905 22.8461 24.6908 22.9732 24.9053 23.0862C25.2629 23.2981 25.6491 23.4111 25.9638 23.3969ZM14.2919 8.59422C14.2919 7.56311 13.5338 6.65911 12.5182 6.50374C12.3037 6.47549 12.0891 6.4331 11.8746 6.44723C11.5313 6.47548 11.4025 6.306 11.3024 6.0235C11.1165 5.48676 10.8733 4.96412 10.4728 4.54038C9.85775 3.89064 9.11393 3.53755 8.19849 3.69293C7.38317 3.83417 6.78242 4.30025 6.36761 4.97824C6.12444 5.35961 5.96709 5.79748 5.78115 6.22123C5.72393 6.3766 5.63812 6.43313 5.48078 6.43313C5.23761 6.44726 5.00875 6.46135 4.76559 6.4896C3.90736 6.58847 3.19217 7.18174 2.949 8.0151C2.70584 8.83433 2.99193 9.72417 3.67851 10.2468C4.35079 10.7835 5.29482 10.8542 6.05292 10.4446C6.25317 10.3316 6.45344 10.2044 6.668 10.1055C6.72521 10.0773 6.81103 10.0773 6.86825 10.1055C7.0542 10.1903 7.22583 10.3033 7.41178 10.388C8.15557 10.7835 8.91368 10.8259 9.67178 10.4446C9.88634 10.3457 10.0866 10.2327 10.2869 10.1197C10.3727 10.0632 10.4585 10.0632 10.5443 10.1197C10.7446 10.2327 10.9448 10.3457 11.1451 10.4587C12.5611 11.2073 14.2776 10.2044 14.2919 8.59422Z" fill="#A4AEF8"/>
</svg>
