<svg width="32" height="32" viewBox="0 0 32 32" fill="none" xmlns="http://www.w3.org/2000/svg">
<path d="M11.6185 7.95493H9.00175V5.33817C9.00175 5.04876 8.76729 4.81482 8.4784 4.81482C8.18951 4.81482 7.95505 5.04876 7.95505 5.33817V7.95493H5.33829C5.0494 7.95493 4.81494 8.18887 4.81494 8.47828C4.81494 8.76769 5.0494 9.00163 5.33829 9.00163H7.95505V11.6184C7.95505 11.9078 8.18951 12.1417 8.4784 12.1417C8.76729 12.1417 9.00175 11.9078 9.00175 11.6184V9.00163H11.6185C11.9074 9.00163 12.1419 8.76769 12.1419 8.47828C12.1419 8.18887 11.9074 7.95493 11.6185 7.95493Z" fill="#A4AEF8"/>
<path fill-rule="evenodd" clip-rule="evenodd" d="M9.62987 7.32691H11.6186C12.2539 7.32691 12.77 7.84161 12.77 8.47828C12.77 9.11495 12.2539 9.62965 11.6186 9.62965H9.62987V11.6184C9.62987 12.2551 9.11382 12.7698 8.47849 12.7698C7.84317 12.7698 7.32712 12.2551 7.32712 11.6184V9.62965H5.33838C4.70306 9.62965 4.18701 9.11495 4.18701 8.47828C4.18701 7.84161 4.70306 7.32691 5.33838 7.32691H7.32712V5.33817C7.32712 4.7015 7.84317 4.1868 8.47849 4.1868C9.11382 4.1868 9.62987 4.7015 9.62987 5.33817V7.32691ZM11.6186 7.95493C11.9075 7.95493 12.142 8.18887 12.142 8.47828C12.142 8.76769 11.9075 9.00163 11.6186 9.00163H9.00184V11.6184C9.00184 11.9078 8.76738 12.1417 8.47849 12.1417C8.1896 12.1417 7.95514 11.9078 7.95514 11.6184V9.00163H5.33838C5.04949 9.00163 4.81503 8.76769 4.81503 8.47828C4.81503 8.18887 5.04949 7.95493 5.33838 7.95493H7.95514V5.33817C7.95514 5.04876 8.1896 4.81482 8.47849 4.81482C8.76738 4.81482 9.00184 5.04876 9.00184 5.33817V7.95493H11.6186Z" fill="#A4AEF8"/>
<path d="M26.2723 7.95493H19.9921C19.7032 7.95493 19.4688 8.18886 19.4688 8.47828C19.4688 8.76769 19.7032 9.00163 19.9921 9.00163H26.2723C26.5612 9.00163 26.7957 8.76769 26.7957 8.47828C26.7957 8.18886 26.5612 7.95493 26.2723 7.95493Z" fill="#A4AEF8"/>
<path fill-rule="evenodd" clip-rule="evenodd" d="M19.9922 7.3269H26.2724C26.9077 7.3269 27.4238 7.84161 27.4238 8.47828C27.4238 9.11495 26.9077 9.62965 26.2724 9.62965H19.9922C19.3569 9.62965 18.8408 9.11495 18.8408 8.47828C18.8408 7.84161 19.3569 7.3269 19.9922 7.3269ZM19.9922 7.95493H26.2724C26.5613 7.95493 26.7958 8.18886 26.7958 8.47828C26.7958 8.76769 26.5613 9.00163 26.2724 9.00163H19.9922C19.7033 9.00163 19.4688 8.76769 19.4688 8.47828C19.4688 8.18886 19.7033 7.95493 19.9922 7.95493Z" fill="#A4AEF8"/>
<path d="M19.9921 25.2256H26.2723C26.5612 25.2256 26.7957 24.9917 26.7957 24.7022C26.7957 24.4128 26.5612 24.1789 26.2723 24.1789H19.9921C19.7032 24.1789 19.4688 24.4128 19.4688 24.7022C19.4688 24.9917 19.7032 25.2256 19.9921 25.2256Z" fill="#A4AEF8"/>
<path fill-rule="evenodd" clip-rule="evenodd" d="M26.2724 25.8536H19.9922C19.3569 25.8536 18.8408 25.3389 18.8408 24.7022C18.8408 24.0655 19.3569 23.5508 19.9922 23.5508H26.2724C26.9077 23.5508 27.4238 24.0655 27.4238 24.7022C27.4238 25.3389 26.9077 25.8536 26.2724 25.8536ZM26.2724 25.2256H19.9922C19.7033 25.2256 19.4688 24.9916 19.4688 24.7022C19.4688 24.4128 19.7033 24.1789 19.9922 24.1789H26.2724C26.5613 24.1789 26.7958 24.4128 26.7958 24.7022C26.7958 24.9916 26.5613 25.2256 26.2724 25.2256Z" fill="#A4AEF8"/>
<path d="M19.9921 22.0854H26.2723C26.5612 22.0854 26.7957 21.8515 26.7957 21.562C26.7957 21.2726 26.5612 21.0387 26.2723 21.0387H19.9921C19.7032 21.0387 19.4688 21.2726 19.4688 21.562C19.4688 21.8515 19.7032 22.0854 19.9921 22.0854Z" fill="#A4AEF8"/>
<path fill-rule="evenodd" clip-rule="evenodd" d="M26.2724 22.7134H19.9922C19.3569 22.7134 18.8408 22.1987 18.8408 21.562C18.8408 20.9254 19.3569 20.4107 19.9922 20.4107H26.2724C26.9077 20.4107 27.4238 20.9254 27.4238 21.562C27.4238 22.1987 26.9077 22.7134 26.2724 22.7134ZM26.2724 22.0854H19.9922C19.7033 22.0854 19.4688 21.8515 19.4688 21.562C19.4688 21.2726 19.7033 21.0387 19.9922 21.0387H26.2724C26.5613 21.0387 26.7958 21.2726 26.7958 21.562C26.7958 21.8515 26.5613 22.0854 26.2724 22.0854Z" fill="#A4AEF8"/>
<path d="M11.4651 20.1453C11.2605 19.9407 10.9298 19.9407 10.7251 20.1453L8.47837 22.392L6.23163 20.1453C6.027 19.9407 5.69624 19.9407 5.49161 20.1453C5.28698 20.3499 5.28698 20.6807 5.49161 20.8853L7.73835 23.1321L5.49161 25.3788C5.28698 25.5834 5.28698 25.9142 5.49161 26.1188C5.59366 26.2209 5.72764 26.2722 5.86162 26.2722C5.99559 26.2722 6.12957 26.2209 6.23163 26.1188L8.47837 23.8721L10.7251 26.1188C10.8272 26.2209 10.9612 26.2722 11.0951 26.2722C11.2291 26.2722 11.3631 26.2209 11.4651 26.1188C11.6698 25.9142 11.6698 25.5834 11.4651 25.3788L9.21839 23.1321L11.4651 20.8853C11.6698 20.6807 11.6698 20.3499 11.4651 20.1453Z" fill="#A4AEF8"/>
<path fill-rule="evenodd" clip-rule="evenodd" d="M10.2809 19.7012C10.7308 19.2513 11.4592 19.2513 11.9091 19.7012C12.359 20.1511 12.359 20.8795 11.9091 21.3294L10.1064 23.1321L11.9091 24.9347C12.359 25.3846 12.359 26.113 11.9091 26.5629C11.6848 26.7872 11.3891 26.9002 11.095 26.9002C10.8008 26.9002 10.5052 26.7872 10.2809 26.5629L8.47822 24.7602L6.67555 26.5629C6.45127 26.7872 6.15559 26.9002 5.86146 26.9002C5.56733 26.9002 5.27166 26.7872 5.04738 26.5629C4.59749 26.113 4.59749 25.3846 5.04738 24.9347L6.85005 23.1321L5.04738 21.3294C4.59749 20.8795 4.59749 20.1511 5.04738 19.7012C5.49727 19.2513 6.22566 19.2513 6.67555 19.7012L8.47822 21.5039L10.2809 19.7012ZM8.47822 22.392L6.23147 20.1453C6.02684 19.9407 5.69609 19.9407 5.49146 20.1453C5.28683 20.3499 5.28683 20.6807 5.49146 20.8853L7.7382 23.1321L5.49146 25.3788C5.28683 25.5834 5.28683 25.9142 5.49146 26.1188C5.59351 26.2209 5.72749 26.2722 5.86146 26.2722C5.99544 26.2722 6.12942 26.2209 6.23147 26.1188L8.47822 23.8721L10.725 26.1188C10.827 26.2209 10.961 26.2722 11.095 26.2722C11.229 26.2722 11.3629 26.2209 11.465 26.1188C11.6696 25.9142 11.6696 25.5834 11.465 25.3788L9.21824 23.1321L11.465 20.8853C11.6696 20.6807 11.6696 20.3499 11.465 20.1453C11.2604 19.9407 10.9296 19.9407 10.725 20.1453L8.47822 22.392Z" fill="#A4AEF8"/>
<path fill-rule="evenodd" clip-rule="evenodd" d="M4.05175 0H27.3493C29.587 0 31.4011 1.81403 31.4011 4.05175V27.3493C31.4011 29.587 29.5871 31.4011 27.3493 31.4011H4.05175C1.81403 31.4011 0 29.5871 0 27.3493V4.05175C0 1.81403 1.81403 0 4.05175 0ZM4.05175 3.03881C3.49232 3.03881 3.03881 3.49232 3.03881 4.05175V27.3493C3.03881 27.9088 3.49232 28.3623 4.05175 28.3623H27.3493C27.9088 28.3623 28.3623 27.9088 28.3623 27.3493V4.05175C28.3623 3.49232 27.9088 3.03881 27.3493 3.03881H4.05175Z" fill="#A4AEF8"/>
<path fill-rule="evenodd" clip-rule="evenodd" d="M14.8258 30.3881L14.8258 1.01294L17.22 1.01294L17.22 30.3881H14.8258Z" fill="#A4AEF8"/>
<path fill-rule="evenodd" clip-rule="evenodd" d="M29.3752 16.5753H0L0 14.1812H29.3752V16.5753Z" fill="#A4AEF8"/>
</svg>
