<svg width="32" height="33" viewBox="0 0 32 33" fill="none" xmlns="http://www.w3.org/2000/svg">
<path d="M4.28197 1.25419H27.1191C29.1994 1.25419 30.8777 2.93249 30.8777 5.0128V27.85C30.8777 29.9303 29.1994 31.6086 27.1191 31.6086H4.28197C2.20165 31.6086 0.523351 29.9303 0.523351 27.85V5.0128C0.523351 2.93249 2.20165 1.25419 4.28197 1.25419ZM27.1191 29.8006C28.1932 29.8006 29.0698 28.924 29.0698 27.85V5.0128C29.0698 3.93873 28.1932 3.06213 27.1191 3.06213H4.28197C3.2079 3.06213 2.33129 3.93873 2.33129 5.0128V27.85C2.33129 28.924 3.2079 29.8006 4.28197 29.8006H27.1191Z" fill="#A4AEF8" stroke="#A4AEF8" stroke-width="1.0467"/>
<path fill-rule="evenodd" clip-rule="evenodd" d="M24.5583 8.49366C24.0017 7.93701 23.1025 7.93701 22.5458 8.49366L6.40284 24.6367C5.84619 25.1933 5.84619 26.0925 6.40284 26.6492C6.9595 27.2059 7.85867 27.2059 8.41533 26.6492L24.5583 10.5062C25.1293 9.94954 25.1293 9.05032 24.5583 8.49366Z" fill="#A4AEF8"/>
<path fill-rule="evenodd" clip-rule="evenodd" d="M9.27753 14.1762C11.2472 14.1762 12.8458 12.5776 12.8458 10.6079C12.8458 8.63821 11.2472 7.03961 9.27753 7.03961C7.30783 7.03961 5.70923 8.63821 5.70923 10.6079C5.70923 12.5776 7.30783 14.1762 9.27753 14.1762ZM9.27753 9.89426C9.67718 9.89426 9.99119 10.2083 9.99119 10.6079C9.99119 11.0076 9.67718 11.3216 9.27753 11.3216C8.87788 11.3216 8.56387 11.0076 8.56387 10.6079C8.56387 10.2225 8.87788 9.89426 9.27753 9.89426Z" fill="#A4AEF8"/>
<path fill-rule="evenodd" clip-rule="evenodd" d="M22.1235 19.8855C20.1538 19.8855 18.5552 21.4841 18.5552 23.4538C18.5552 25.4235 20.1538 27.0221 22.1235 27.0221C24.0932 27.0221 25.6918 25.4235 25.6918 23.4538C25.6918 21.4841 24.0932 19.8855 22.1235 19.8855ZM22.1235 24.1675C21.7238 24.1675 21.4098 23.8535 21.4098 23.4538C21.4098 23.0542 21.7238 22.7401 22.1235 22.7401C22.5231 22.7401 22.8371 23.0542 22.8371 23.4538C22.8371 23.8535 22.5231 24.1675 22.1235 24.1675Z" fill="#A4AEF8"/>
</svg>
