<svg width="20" height="22" viewBox="0 0 20 22" fill="none" xmlns="http://www.w3.org/2000/svg">
<path fill-rule="evenodd" clip-rule="evenodd" d="M3.35912 3.31314L3.17578 3.49647C-1.05507 7.72732 -1.06212 14.5883 3.17578 18.8262C3.61297 19.2634 4.33221 19.2634 4.7694 18.8262L10.8195 12.7761L16.0728 18.0294C16.4606 18.4172 16.4606 19.0519 16.0728 19.4397C15.685 19.8275 15.0503 19.8275 14.6625 19.4397L13.6048 18.382C13.217 17.9942 12.5823 17.9942 12.1945 18.382C11.8067 18.7698 11.8067 19.4044 12.1945 19.7923L13.2522 20.85C14.5497 22.1474 16.7427 21.9994 17.8427 20.4199C18.6818 19.2141 18.4209 17.557 17.3773 16.5134L12.2298 11.3658L18.6889 4.90675C19.1261 4.46957 19.1261 3.75032 18.6889 3.31313C14.458 -0.917713 7.58997 -0.917711 3.35912 3.31314ZM4.0008 16.7743C1.14498 13.2979 1.33536 8.15746 4.58606 4.90676L4.7694 4.72342C8.01305 1.47977 13.1606 1.28233 16.6369 4.13815L4.0008 16.7743Z" fill="white"/>
</svg>
