<svg width="37" height="42" viewBox="0 0 37 42" fill="none" xmlns="http://www.w3.org/2000/svg">
<path fill-rule="evenodd" clip-rule="evenodd" d="M6.49603 6.13637L6.14148 6.49091C-2.04034 14.6727 -2.05398 27.9409 6.14148 36.1364C6.98693 36.9818 8.37785 36.9818 9.2233 36.1364L20.9233 24.4364L31.0824 34.5954C31.8324 35.3454 31.8324 36.5727 31.0824 37.3227C30.3324 38.0727 29.1051 38.0727 28.3551 37.3227L26.3096 35.2773C25.5596 34.5273 24.3324 34.5273 23.5824 35.2773C22.8324 36.0273 22.8324 37.2545 23.5824 38.0045L25.6278 40.05C28.1369 42.5591 32.3778 42.2727 34.5051 39.2182C36.1278 36.8864 35.6233 33.6818 33.6051 31.6636L23.6506 21.7091L36.1415 9.21818C36.9869 8.37273 36.9869 6.98182 36.1415 6.13636C27.9597 -2.04546 14.6778 -2.04545 6.49603 6.13637ZM7.73694 32.1682C2.21421 25.4455 2.58239 15.5045 8.86875 9.21819L9.2233 8.86364C15.496 2.59091 25.4506 2.2091 32.1733 7.73182L7.73694 32.1682Z" fill="white"/>
</svg>
