<svg width="36" height="36" viewBox="0 0 36 36" fill="none" xmlns="http://www.w3.org/2000/svg">
<path fill-rule="evenodd" clip-rule="evenodd" d="M17.9522 35.7059C27.7387 35.7059 35.6723 27.7724 35.6723 17.9859C35.6723 8.1994 27.7387 0.265869 17.9522 0.265869C8.16571 0.265869 0.232178 8.1994 0.232178 17.9859C0.232178 27.7724 8.16571 35.7059 17.9522 35.7059ZM20.4217 12.543C20.4217 11.7127 21.0948 11.0397 21.9251 11.0397C22.7554 11.0397 23.4284 11.7127 23.4284 12.543C23.4284 13.3733 22.7554 14.0464 21.9251 14.0464C21.3871 14.0464 20.9151 13.7638 20.6494 13.3389C20.6425 13.3256 20.6353 13.3123 20.6276 13.2991C20.6198 13.2858 20.6118 13.2729 20.6035 13.2602C20.4875 13.047 20.4217 12.8027 20.4217 12.543ZM18.827 13.3651C18.7576 13.1027 18.7206 12.8272 18.7206 12.543C18.7206 10.7732 20.1553 9.33853 21.9251 9.33853C23.6949 9.33853 25.1296 10.7732 25.1296 12.543C25.1296 14.3128 23.6949 15.7475 21.9251 15.7475C21.0531 15.7475 20.2624 15.3992 19.6847 14.8342L15.6075 17.2135C15.6769 17.4759 15.7139 17.7514 15.7139 18.0355C15.7139 18.3195 15.677 18.5949 15.6076 18.857L19.6873 21.2344C20.2648 20.6708 21.0544 20.3236 21.9251 20.3236C23.6949 20.3236 25.1296 21.7583 25.1296 23.5281C25.1296 25.2979 23.6949 26.7326 21.9251 26.7326C20.1553 26.7326 18.7206 25.2979 18.7206 23.5281C18.7206 23.2426 18.7579 22.9659 18.8279 22.7025L14.7502 20.3263C14.1724 20.8916 13.3816 21.24 12.5094 21.24C10.7396 21.24 9.30491 19.8053 9.30491 18.0355C9.30491 16.2658 10.7396 14.8311 12.5094 14.8311C13.3814 14.8311 14.1721 15.1794 14.7498 15.7444L18.827 13.3651ZM13.7862 17.2415C13.5208 16.8156 13.0482 16.5322 12.5094 16.5322C11.6791 16.5322 11.006 17.2053 11.006 18.0355C11.006 18.8658 11.6791 19.5389 12.5094 19.5389C13.0481 19.5389 13.5207 19.2555 13.7861 18.8297C13.7927 18.8171 13.7996 18.8045 13.8068 18.7921C13.8143 18.7793 13.822 18.7667 13.8301 18.7544C13.9466 18.5409 14.0128 18.2959 14.0128 18.0355C14.0128 17.7751 13.9465 17.53 13.83 17.3164C13.8221 17.3044 13.8144 17.292 13.8071 17.2794C13.7998 17.2669 13.7928 17.2543 13.7862 17.2415ZM20.4217 23.5281C20.4217 23.2859 20.479 23.0571 20.5807 22.8544C20.6004 22.8282 20.6188 22.8005 20.6357 22.7715C20.6519 22.7437 20.6663 22.7154 20.679 22.6867C20.9493 22.2872 21.4065 22.0247 21.9251 22.0247C22.7554 22.0247 23.4284 22.6978 23.4284 23.5281C23.4284 24.3584 22.7554 25.0314 21.9251 25.0314C21.0948 25.0314 20.4217 24.3584 20.4217 23.5281Z" fill="#A4AEF8"/>
</svg>
