<svg xmlns="http://www.w3.org/2000/svg" xmlns:xlink="http://www.w3.org/1999/xlink"><symbol id="arrow">
    <path fill-rule="evenodd" clip-rule="evenodd" d="M6.557.836L6.002.28l-1.11 1.11.555.555 2.847 2.847H.193v1.57H8.294L5.447 9.209l-.555.555 1.11 1.11.555-.555 4.187-4.186.555-.555-.555-.556L6.557.836z"/>
</symbol><symbol id="email">
    <path fill-rule="evenodd" clip-rule="evenodd" d="M36.056 17.986c0 9.786-7.933 17.72-17.72 17.72-9.786 0-17.72-7.934-17.72-17.72C.616 8.199 8.55.266 18.336.266c9.787 0 17.72 7.933 17.72 17.72zm-24.562-5.18l6.892 4.824 6.892-4.824a.722.722 0 00-.615-.349H12.109a.722.722 0 00-.615.349zm15.589.353a2.425 2.425 0 00-2.42-2.403H12.109a2.425 2.425 0 00-2.42 2.429v9.407a2.424 2.424 0 002.42 2.42h12.554a2.424 2.424 0 002.42-2.42v-9.404-.029zm-1.701 1.65v7.783a.723.723 0 01-.72.718H12.11a.723.723 0 01-.72-.718V14.81l6.509 4.555a.85.85 0 00.976 0l6.508-4.555z"/>
</symbol><symbol id="fb">
    <path fill-rule="evenodd" clip-rule="evenodd" d="M17.72 35.706c9.787 0 17.72-7.934 17.72-17.72 0-9.787-7.933-17.72-17.72-17.72C7.934.266 0 8.199 0 17.986c0 9.786 7.934 17.72 17.72 17.72zm2.341-27.34l2.627.005c.227 0 .412.185.412.413v3.091a.413.413 0 01-.413.413h-1.769c-1.22 0-1.443.476-1.443 1.412v1.948h3.089a.413.413 0 01.413.413l-.002 3.33a.413.413 0 01-.412.413h-3.088v8.401a.413.413 0 01-.413.413h-3.445a.413.413 0 01-.413-.413v-8.401h-2.64a.413.413 0 01-.413-.413v-3.33c0-.228.185-.413.413-.413h2.64V13.35c0-3.027 1.907-4.984 4.857-4.984z"/>
</symbol><symbol id="geo-auroras">
    <path d="M17.005 32.055H4.355c-1.542 0-2.77-.642-3.641-1.913-.5-.714-.714-1.527-.714-2.398V2.172C0 1.144.985.372 1.999.802c.542.228.814.67.857 1.256v25.671c0 .757.47 1.342 1.199 1.457.114.014.228.014.328.014h25.53c.727 0 1.313.442 1.455 1.128a1.415 1.415 0 01-1.313 1.713h-.257c-4.255.014-8.524.014-12.793.014z"/>
    <path d="M5.297 18.206c0-2.185-.057-4.383.015-6.568.1-2.784 1.442-4.869 3.969-6.025 2.713-1.242 5.283-.814 7.524 1.156 1.47 1.3 2.199 2.984 2.228 4.955.014 1.27 0 2.541 0 3.812 0 1.185.214 2.327.728 3.398 1.156 2.384 3.027 3.87 5.64 4.412.514.1 1.056.128 1.57.143.528.028 1.042 0 1.57 0 .8 0 1.414.614 1.443 1.399a1.405 1.405 0 01-1.371 1.442c-1.014.014-2.027.057-3.041-.071-1.57-.2-3.041-.7-4.37-1.557-2.698-1.742-4.34-4.197-4.882-7.353-.1-.542-.129-1.114-.143-1.656-.014-1.342.014-2.684-.014-4.026-.029-1.957-1.585-3.627-3.541-3.841-2.199-.243-4.14 1.256-4.44 3.44a3.613 3.613 0 00-.043.543v13.036c0 .671-.357 1.2-.957 1.4a1.428 1.428 0 01-1.899-1.343c.014-2.213.014-4.454.014-6.696z"/>
</symbol><symbol id="geo-calc">
    <path d="M11.618 7.955H9.002V5.338a.523.523 0 10-1.047 0v2.617H5.338a.523.523 0 100 1.047h2.617v2.616a.523.523 0 101.047 0V9.002h2.616a.523.523 0 100-1.047z"/>
    <path fill-rule="evenodd" clip-rule="evenodd" d="M9.63 7.327h1.989a1.151 1.151 0 110 2.303h-1.99v1.988a1.151 1.151 0 11-2.302 0V9.63H5.338a1.151 1.151 0 110-2.303h1.99V5.338a1.151 1.151 0 112.302 0v1.989zm1.989.628a.523.523 0 110 1.047H9.002v2.616a.523.523 0 11-1.047 0V9.002H5.338a.523.523 0 110-1.047h2.617V5.338a.523.523 0 111.047 0v2.617h2.617z"/>
    <path d="M26.272 7.955h-6.28a.523.523 0 100 1.047h6.28a.523.523 0 100-1.047z"/>
    <path fill-rule="evenodd" clip-rule="evenodd" d="M19.992 7.327h6.28a1.151 1.151 0 110 2.303h-6.28a1.151 1.151 0 110-2.303zm0 .628h6.28a.523.523 0 110 1.047h-6.28a.523.523 0 110-1.047z"/>
    <path d="M19.992 25.226h6.28a.523.523 0 100-1.047h-6.28a.523.523 0 100 1.047z"/>
    <path fill-rule="evenodd" clip-rule="evenodd" d="M26.272 25.854h-6.28a1.151 1.151 0 110-2.303h6.28a1.151 1.151 0 110 2.303zm0-.628h-6.28a.523.523 0 110-1.047h6.28a.523.523 0 110 1.047z"/>
    <path d="M19.992 22.085h6.28a.523.523 0 100-1.046h-6.28a.523.523 0 100 1.046z"/>
    <path fill-rule="evenodd" clip-rule="evenodd" d="M26.272 22.713h-6.28a1.151 1.151 0 110-2.302h6.28a1.151 1.151 0 110 2.302zm0-.628h-6.28a.523.523 0 110-1.046h6.28a.523.523 0 110 1.046z"/>
    <path d="M11.465 20.145a.523.523 0 00-.74 0l-2.247 2.247-2.246-2.247a.523.523 0 10-.74.74l2.246 2.247-2.246 2.247a.523.523 0 10.74.74l2.246-2.247 2.247 2.247a.522.522 0 00.74 0 .523.523 0 000-.74l-2.247-2.247 2.247-2.247a.523.523 0 000-.74z"/>
    <path fill-rule="evenodd" clip-rule="evenodd" d="M10.28 19.701a1.15 1.15 0 111.63 1.628l-1.804 1.803 1.803 1.803a1.15 1.15 0 11-1.628 1.628L8.478 24.76l-1.802 1.803a1.15 1.15 0 01-1.629 0 1.15 1.15 0 010-1.628l1.803-1.803-1.803-1.803a1.15 1.15 0 111.629-1.628l1.802 1.803 1.803-1.803zm-1.802 2.691l-2.247-2.247a.523.523 0 10-.74.74l2.247 2.247-2.247 2.247a.523.523 0 10.74.74l2.247-2.247 2.247 2.247a.522.522 0 00.74 0 .523.523 0 000-.74l-2.247-2.247 2.247-2.247a.523.523 0 10-.74-.74l-2.247 2.247z"/>
    <path fill-rule="evenodd" clip-rule="evenodd" d="M4.052 0h23.297a4.052 4.052 0 014.052 4.052v23.297a4.052 4.052 0 01-4.052 4.052H4.052A4.052 4.052 0 010 27.35V4.052A4.052 4.052 0 014.052 0zm0 3.039c-.56 0-1.013.453-1.013 1.013v23.297c0 .56.453 1.013 1.013 1.013h23.297c.56 0 1.013-.453 1.013-1.013V4.052c0-.56-.453-1.013-1.013-1.013H4.052z"/>
    <path fill-rule="evenodd" clip-rule="evenodd" d="M14.826 30.388V1.013h2.394v29.375h-2.394z"/>
    <path fill-rule="evenodd" clip-rule="evenodd" d="M29.375 16.575H0v-2.394h29.375v2.394z"/>
</symbol><symbol id="geo-data">
    <path d="M4.282 1.254h22.837a3.753 3.753 0 013.759 3.759V27.85a3.753 3.753 0 01-3.759 3.759H4.282A3.753 3.753 0 01.523 27.85V5.013a3.753 3.753 0 013.759-3.759zm22.837 28.547c1.074 0 1.95-.877 1.95-1.951V5.013c0-1.074-.876-1.95-1.95-1.95H4.282c-1.074 0-1.95.876-1.95 1.95V27.85c0 1.074.876 1.95 1.95 1.95h22.837z" stroke-width="1.047"/>
    <path fill-rule="evenodd" clip-rule="evenodd" d="M24.558 8.494a1.421 1.421 0 00-2.012 0L6.403 24.637a1.421 1.421 0 000 2.012 1.421 1.421 0 002.012 0l16.143-16.143a1.396 1.396 0 000-2.012zM9.278 14.176a3.57 3.57 0 003.568-3.568A3.57 3.57 0 009.278 7.04a3.57 3.57 0 00-3.569 3.568 3.57 3.57 0 003.569 3.568zm0-4.282c.4 0 .713.314.713.714 0 .4-.314.714-.713.714a.707.707 0 01-.714-.714c0-.386.314-.714.714-.714zM22.123 19.886a3.57 3.57 0 00-3.568 3.568 3.57 3.57 0 003.569 3.568 3.57 3.57 0 003.568-3.568 3.57 3.57 0 00-3.569-3.569zm0 4.282a.707.707 0 01-.713-.714c0-.4.314-.714.713-.714.4 0 .714.314.714.714 0 .4-.314.713-.713.713z"/>
</symbol><symbol id="geo-variation">
    <path d="M16.051 30.473c-4.105-.07-7.38-1.313-10.127-3.856-2.389-2.203-3.819-4.93-4.334-8.121a13.69 13.69 0 01.33-5.848c.028-.113.013-.17-.072-.24C.503 11.292-.112 9.865.017 8.142c.157-2.005 1.587-3.715 3.547-4.294.115-.028.172-.084.229-.183.758-1.243 1.788-2.176 3.204-2.6 1.888-.564 3.59-.155 5.078 1.102.1.085.2.17.272.269.1.127.2.141.357.113 3.333-.678 6.537-.269 9.57 1.271 2.76 1.413 4.834 3.531 6.222 6.271a13.338 13.338 0 011.416 5.114c.043.565.028 1.13.043 1.694a.42.42 0 00.085.255c1.803 2.104 1.817 5.085.029 7.19-1.03 1.214-2.374 1.835-3.976 1.864a.446.446 0 00-.344.141c-2.145 2.076-4.691 3.39-7.652 3.884-.758.156-1.574.184-2.046.24zm-.386-25.396c.072.07.115.113.157.17 1.13 1.257 1.56 2.726 1.216 4.364-.63 2.938-3.647 4.605-6.537 3.644a.359.359 0 00-.243 0 5.275 5.275 0 01-3.333.014.544.544 0 00-.3 0 5.045 5.045 0 01-1.774.255c-.157 0-.214.028-.243.17a11.26 11.26 0 00-.157 4.533c.4 2.303 1.402 4.294 3.047 5.96 2.06 2.091 4.577 3.235 7.523 3.433 2.003.127 3.92-.254 5.722-1.116.2-.099.386-.197.586-.31-.343-.1-.658-.17-.972-.269a.56.56 0 00-.372 0c-2.06.664-3.905.283-5.45-1.2-1.302-1.243-1.816-2.797-1.63-4.577.228-2.16 1.759-3.983 3.847-4.604a.461.461 0 00.2-.17c.444-.79 1.002-1.483 1.731-2.034 1.388-1.073 2.947-1.469 4.663-1.088 1.516.34 2.646 1.215 3.548 2.43.043.056.085.113.143.198-.63-5.58-5.75-9.93-11.372-9.803zm10.299 18.32c.543 0 .987-.113 1.359-.34.958-.578 1.459-1.722 1.215-2.81-.228-1.06-.858-1.765-1.93-2.034-.344-.085-.701-.085-1.059-.113-.086-.014-.143-.042-.172-.127-.057-.17-.143-.353-.2-.523-.243-.663-.6-1.257-1.116-1.737-.815-.763-1.945-.989-2.918-.565a3.225 3.225 0 00-1.53 1.384c-.258.438-.43.933-.63 1.399-.042.113-.1.17-.228.183-.415.043-.858.057-1.259.184-1.545.494-2.231 2.401-1.416 3.828.687 1.186 2.088 1.624 3.276 1.003.243-.128.471-.283.715-.41.057-.028.143-.028.186 0 .228.113.457.254.686.381.701.368 1.445.424 2.174.113.33-.14.63-.325.944-.494.086-.042.13-.042.215 0 .215.127.415.254.63.367.357.212.743.325 1.058.31zM14.292 8.594c0-1.03-.758-1.935-1.774-2.09-.214-.029-.429-.07-.643-.057-.344.028-.473-.141-.573-.423-.185-.537-.429-1.06-.83-1.484-.614-.65-1.358-1.002-2.274-.847-.815.141-1.416.607-1.83 1.285-.244.382-.4.82-.587 1.243-.057.156-.143.212-.3.212a12.19 12.19 0 00-.715.057 2.138 2.138 0 00-1.817 1.525c-.243.82.043 1.71.73 2.232a2.17 2.17 0 002.374.198c.2-.113.4-.24.615-.34a.248.248 0 01.2 0c.186.085.358.198.544.283.744.396 1.502.438 2.26.057.214-.1.415-.212.615-.325a.217.217 0 01.257 0l.601.339c1.416.748 3.133-.255 3.147-1.865z"/>
</symbol><symbol id="logo-tablet">
    <path fill-rule="evenodd" clip-rule="evenodd" d="M6.496 6.136l-.355.355c-8.181 8.182-8.195 21.45 0 29.645a2.19 2.19 0 003.082 0l11.7-11.7 10.16 10.16c.75.75.75 1.977 0 2.727-.75.75-1.978.75-2.728 0l-2.045-2.046a1.934 1.934 0 00-2.728 0c-.75.75-.75 1.977 0 2.727l2.046 2.046c2.509 2.51 6.75 2.223 8.877-.832 1.623-2.332 1.118-5.536-.9-7.554l-9.954-9.955L36.14 9.22a2.19 2.19 0 000-3.083c-8.181-8.181-21.463-8.181-29.645 0zm1.24 26.032C2.215 25.445 2.583 15.505 8.87 9.218l.354-.354c6.273-6.273 16.228-6.655 22.95-1.132L7.737 32.168z"/>
</symbol><symbol id="logo">
    <path fill-rule="evenodd" clip-rule="evenodd" d="M3.36 3.313l-.184.183c-4.231 4.231-4.238 11.092 0 15.33a1.132 1.132 0 001.593 0l6.05-6.05 5.254 5.253a1 1 0 010 1.41 1 1 0 01-1.41 0l-1.058-1.057a1 1 0 00-1.41 0 1 1 0 000 1.41l1.057 1.058a2.998 2.998 0 004.59-.43c.84-1.206.579-2.863-.465-3.907l-5.147-5.147 6.459-6.46a1.132 1.132 0 000-1.593c-4.231-4.23-11.099-4.23-15.33 0zM4 16.774c-2.855-3.476-2.665-8.617.586-11.867l.183-.184c3.244-3.243 8.392-3.44 11.868-.585L4 16.774z"/>
</symbol><symbol id="share-link">
    <path fill-rule="evenodd" clip-rule="evenodd" d="M17.952 35.706c9.787 0 17.72-7.934 17.72-17.72 0-9.787-7.933-17.72-17.72-17.72C8.166.266.232 8.199.232 17.986c0 9.786 7.934 17.72 17.72 17.72zm2.47-23.163a1.503 1.503 0 113.006 0 1.503 1.503 0 01-3.006 0zm-1.595.822a3.204 3.204 0 11.858 1.47l-4.077 2.379a3.21 3.21 0 010 1.643l4.08 2.377a3.204 3.204 0 11-.86 1.468l-4.078-2.376a3.204 3.204 0 110-4.582l4.077-2.379zm-5.04 3.876a1.502 1.502 0 00-2.781.794 1.503 1.503 0 102.78-.794zm6.635 6.287c0-.242.057-.47.159-.674a.85.85 0 00.098-.167 1.503 1.503 0 11-.257.841z"/>
</symbol><symbol id="sprite"/></svg>